<svg width="37" height="37" viewBox="0 0 37 37" fill="none" xmlns="http://www.w3.org/2000/svg">
<path d="M10.6064 29.1375C9.97436 29.1375 9.4502 28.6134 9.4502 27.9813V24.79C9.4502 24.158 9.97436 23.6338 10.6064 23.6338C11.2385 23.6338 11.7627 24.158 11.7627 24.79V27.9813C11.7627 28.6288 11.2385 29.1375 10.6064 29.1375Z" fill="white"/>
<path d="M18.5 29.1374C17.8679 29.1374 17.3438 28.6133 17.3438 27.9812V21.5833C17.3438 20.9512 17.8679 20.427 18.5 20.427C19.1321 20.427 19.6562 20.9512 19.6562 21.5833V27.9812C19.6562 28.6287 19.1321 29.1374 18.5 29.1374Z" fill="white"/>
<path d="M26.3936 29.1375C25.7615 29.1375 25.2373 28.6133 25.2373 27.9813V18.3921C25.2373 17.76 25.7615 17.2358 26.3936 17.2358C27.0256 17.2358 27.5498 17.76 27.5498 18.3921V27.9813C27.5498 28.6288 27.0411 29.1375 26.3936 29.1375Z" fill="white"/>
<path d="M10.6066 20.3192C10.0824 20.3192 9.61993 19.9646 9.48118 19.4404C9.32701 18.8238 9.69701 18.1917 10.3291 18.0375C16.0024 16.6192 20.9974 13.5204 24.8053 9.09585L25.5145 8.26335C25.9308 7.78544 26.6553 7.72377 27.1487 8.14002C27.6266 8.55627 27.6883 9.28085 27.272 9.77419L26.5628 10.6067C22.4466 15.4167 17.0199 18.7621 10.8841 20.2884C10.7916 20.3192 10.6991 20.3192 10.6066 20.3192Z" fill="white"/>
<path d="M26.3931 14.6767C25.761 14.6767 25.2368 14.1525 25.2368 13.5205V10.175H21.876C21.2439 10.175 20.7197 9.65088 20.7197 9.0188C20.7197 8.38672 21.2439 7.86255 21.876 7.86255H26.3931C27.0251 7.86255 27.5493 8.38672 27.5493 9.0188V13.5359C27.5493 14.168 27.0406 14.6767 26.3931 14.6767Z" fill="white"/>
<path d="M23.1247 35.0728H13.8747C5.50342 35.0728 1.92676 31.4962 1.92676 23.1249V13.8749C1.92676 5.50367 5.50342 1.927 13.8747 1.927H23.1247C31.4959 1.927 35.0726 5.50367 35.0726 13.8749V23.1249C35.0726 31.4962 31.4959 35.0728 23.1247 35.0728ZM13.8747 4.2395C6.76759 4.2395 4.23926 6.76784 4.23926 13.8749V23.1249C4.23926 30.232 6.76759 32.7603 13.8747 32.7603H23.1247C30.2318 32.7603 32.7601 30.232 32.7601 23.1249V13.8749C32.7601 6.76784 30.2318 4.2395 23.1247 4.2395H13.8747Z" fill="white"/>
</svg>
