<svg width="50" height="50" viewBox="0 0 50 50" fill="none" xmlns="http://www.w3.org/2000/svg">
<path d="M36.2918 31.6667V17.0208C36.2918 15.325 34.9043 13.9375 33.2085 13.9375H26.271" stroke="white" stroke-width="1.5" stroke-linecap="round" stroke-linejoin="round"/>
<path d="M30.125 10.0834L25.5 13.9375L30.125 17.7917" stroke="white" stroke-width="1.5" stroke-linecap="round" stroke-linejoin="round"/>
<path d="M14.7085 20.875V31.6667" stroke="white" stroke-width="1.5" stroke-linecap="round" stroke-linejoin="round"/>
<path d="M15.0939 20.1042C17.8611 20.1042 20.1043 17.861 20.1043 15.0938C20.1043 12.3266 17.8611 10.0834 15.0939 10.0834C12.3267 10.0834 10.0835 12.3266 10.0835 15.0938C10.0835 17.861 12.3267 20.1042 15.0939 20.1042Z" stroke="white" stroke-width="1.5" stroke-linecap="round" stroke-linejoin="round"/>
<path d="M14.7085 40.9166C17.2628 40.9166 19.3335 38.8459 19.3335 36.2916C19.3335 33.7373 17.2628 31.6666 14.7085 31.6666C12.1542 31.6666 10.0835 33.7373 10.0835 36.2916C10.0835 38.8459 12.1542 40.9166 14.7085 40.9166Z" stroke="white" stroke-width="1.5" stroke-linecap="round" stroke-linejoin="round"/>
<path d="M36.2915 40.9166C38.8458 40.9166 40.9165 38.8459 40.9165 36.2916C40.9165 33.7373 38.8458 31.6666 36.2915 31.6666C33.7372 31.6666 31.6665 33.7373 31.6665 36.2916C31.6665 38.8459 33.7372 40.9166 36.2915 40.9166Z" stroke="white" stroke-width="1.5" stroke-linecap="round" stroke-linejoin="round"/>
</svg>
