<svg width="37" height="37" viewBox="0 0 37 37" fill="none" xmlns="http://www.w3.org/2000/svg">
<path d="M14.121 17.9141C14.0747 17.9141 14.0439 17.9141 13.9976 17.9141C13.9205 17.8987 13.8126 17.8987 13.7201 17.9141C9.2493 17.7753 5.87305 14.2603 5.87305 9.92825C5.87305 5.51909 9.46513 1.927 13.8743 1.927C18.2835 1.927 21.8755 5.51909 21.8755 9.92825C21.8601 14.2603 18.4685 17.7753 14.1672 17.9141C14.1518 17.9141 14.1364 17.9141 14.121 17.9141ZM13.8743 4.2395C10.7447 4.2395 8.18555 6.79867 8.18555 9.92825C8.18555 13.0116 10.5905 15.4937 13.6585 15.6016C13.751 15.5862 13.9514 15.5862 14.1518 15.6016C17.1735 15.4628 19.5476 12.9808 19.563 9.92825C19.563 6.79867 17.0039 4.2395 13.8743 4.2395Z" fill="white"/>
<path d="M25.4982 18.1147C25.4519 18.1147 25.4057 18.1147 25.3594 18.0992C24.7273 18.1609 24.0798 17.7138 24.0182 17.0817C23.9565 16.4497 24.3419 15.8792 24.974 15.8022C25.159 15.7867 25.3594 15.7867 25.529 15.7867C27.7798 15.6634 29.5373 13.8134 29.5373 11.5472C29.5373 9.20383 27.6411 7.30758 25.2977 7.30758C24.6657 7.323 24.1415 6.79883 24.1415 6.16675C24.1415 5.53466 24.6657 5.0105 25.2977 5.0105C28.9052 5.0105 31.8498 7.95508 31.8498 11.5626C31.8498 15.1084 29.0748 17.9759 25.5444 18.1147C25.529 18.1147 25.5136 18.1147 25.4982 18.1147Z" fill="white"/>
<path d="M14.1362 34.7647C11.1146 34.7647 8.07749 33.9938 5.7804 32.4522C3.63749 31.0338 2.46582 29.0913 2.46582 26.9792C2.46582 24.8672 3.63749 22.9092 5.7804 21.4755C10.4054 18.4076 17.8979 18.4076 22.4921 21.4755C24.6196 22.8938 25.8067 24.8363 25.8067 26.9484C25.8067 29.0605 24.635 31.0184 22.4921 32.4522C20.1796 33.9938 17.1579 34.7647 14.1362 34.7647ZM7.05999 23.418C5.57999 24.4047 4.77832 25.6688 4.77832 26.9947C4.77832 28.3051 5.5954 29.5692 7.05999 30.5405C10.8987 33.1151 17.3737 33.1151 21.2125 30.5405C22.6925 29.5538 23.4942 28.2897 23.4942 26.9638C23.4942 25.6534 22.6771 24.3892 21.2125 23.418C17.3737 20.8588 10.8987 20.8588 7.05999 23.418Z" fill="white"/>
<path d="M28.2737 31.9896C27.7341 31.9896 27.2562 31.6196 27.1483 31.0646C27.0249 30.4325 27.4258 29.8313 28.0424 29.6925C29.0137 29.4921 29.9079 29.1067 30.6016 28.5671C31.4804 27.9042 31.9583 27.0717 31.9583 26.1929C31.9583 25.3142 31.4804 24.4817 30.617 23.8342C29.9387 23.31 29.0908 22.94 28.0887 22.7088C27.472 22.57 27.0712 21.9534 27.2099 21.3213C27.3487 20.7046 27.9654 20.3038 28.5974 20.4425C29.9233 20.7354 31.0795 21.2596 32.0199 21.9842C33.4537 23.0634 34.2708 24.5896 34.2708 26.1929C34.2708 27.7963 33.4383 29.3225 32.0045 30.4171C31.0487 31.1571 29.8462 31.6967 28.5204 31.9588C28.4279 31.9896 28.3508 31.9896 28.2737 31.9896Z" fill="white"/>
</svg>
