<svg width="120" height="41" viewBox="0 0 120 41" fill="none" xmlns="http://www.w3.org/2000/svg">
<path d="M3.00386 20.5819H10.1014V14.8676C10.1014 12.0593 11.5684 9.43268 13.9854 8.00759C14.0413 7.97965 14.0832 7.95171 14.1391 7.92376C17.3805 6.12145 20.566 7.12739 21.0829 7.29505C21.6837 7.50462 24.464 8.53851 25.9869 11.5424C27.7892 15.0772 26.3921 18.4582 26.1825 18.9333C25.7215 19.7296 24.8273 21.0709 23.2345 22.2166C23.1786 22.2585 23.1367 22.2864 23.0809 22.3144C21.6138 23.3343 19.8534 23.8652 18.0651 23.8652H13.2449L13.1332 30.6972H19.5181C20.8314 30.5994 24.5898 30.1524 28.0966 27.2323C31.6454 24.2843 32.7631 20.6098 33.0984 19.3384C33.4756 18.067 34.0345 15.5522 33.4616 12.4365C32.9307 9.53048 31.6454 7.47668 30.8769 6.41485C29.9548 5.2133 27.5098 2.36312 23.2485 0.882148C19.7417 -0.319397 16.7099 -0.0259966 15.2149 0.22549C13.9854 0.463004 9.76605 1.44101 6.52467 5.36699C3.81421 8.65028 3.32521 12.1711 3.19946 13.5123C3.12961 15.8735 3.07372 18.2347 3.00386 20.5819Z" fill="white"/>
<path d="M10.0315 23.8233H0V30.6972H10.0315V23.8233Z" fill="white"/>
<path d="M10.0315 33.9246H3.00386V40.7986H10.0315V33.9246Z" fill="white"/>
<path d="M43.2528 13.1799H50.6465C52.8931 13.1799 53.3626 12.7775 53.3626 11.1345V10.5477C53.3626 8.90464 52.8931 8.50226 50.6465 8.50226H43.2528V13.1799ZM43.2528 19.3665H41.7439V7.17777H50.2106C53.6141 7.17777 54.9889 7.58015 54.9889 10.0782V11.671C54.9889 14.1691 53.6141 14.5547 50.2106 14.5547H43.2528V19.3665Z" fill="white"/>
<path d="M62.0678 19.5174C60.1901 19.5174 58.8991 19.4168 58.0105 18.6623C57.1554 17.9414 56.8704 16.8013 56.8704 15.0744V7.17777H58.4296V15.0744C58.4296 15.9798 58.4464 16.6672 58.8488 17.2372C59.3182 17.9246 60.1398 18.1258 61.414 18.1258H66.4269C67.7011 18.1258 68.5226 17.9246 68.9921 17.2372C69.3944 16.6672 69.4112 15.9798 69.4112 15.0744V7.17777H70.9704V14.9906C70.9704 16.7845 70.6519 17.9581 69.8471 18.6623C68.9921 19.4168 67.7011 19.5174 65.7898 19.5174H62.0678Z" fill="white"/>
<path d="M75.3763 19.3665H73.8674V7.17777H82.5688C86.0058 7.17777 87.3638 7.59691 87.3638 10.0782V11.5369C87.3638 12.9787 86.8944 13.6158 85.2178 13.9679C86.5423 14.1188 87.2297 14.9235 87.2297 16.3486V19.3665H85.7208V16.6504C85.7208 14.7391 84.8657 14.5882 82.77 14.5882H75.3763V19.3665ZM83.055 8.50226H75.3763V13.1799H83.055C85.2178 13.1799 85.771 12.7943 85.771 11.1345V10.5477C85.771 8.88787 85.2178 8.50226 83.055 8.50226Z" fill="white"/>
<path d="M100.221 18.109C102.685 18.109 103.121 17.4887 103.121 15.1918V14.5715H96.8677V13.2134H104.647V15.1918C104.647 16.7845 104.647 17.9246 103.675 18.7461C102.87 19.4335 101.495 19.5174 99.4329 19.5174H95.0738C93.1625 19.5174 91.838 19.4168 90.9327 18.6455C90.0609 17.9078 89.7758 16.7678 89.7758 15.0409V11.7213C89.7758 9.84352 90.0609 8.61962 90.9327 7.88193C91.8045 7.14424 93.1122 7.02687 95.0571 7.02687H99.4329C103.121 7.02687 104.53 7.66397 104.53 10.4639C104.53 10.665 104.53 10.883 104.513 11.1177H103.121V10.9333C103.121 8.98847 102.35 8.36814 100.271 8.36814H94.4535C93.1458 8.36814 92.341 8.55256 91.838 9.25672C91.4189 9.84352 91.4021 10.598 91.4021 11.6207V14.8565C91.4021 15.8792 91.4189 16.6336 91.838 17.2205C92.3242 17.9078 93.1458 18.109 94.4535 18.109H100.221Z" fill="white"/>
<path d="M107.35 19.3665V7.17777H119.354V8.53579H108.826V12.3584H118.919V13.7164H108.826V18.0084H119.354V19.3665H107.35Z" fill="white"/>
<path d="M41.0901 27.1486H42.6968C43.06 27.1486 43.3534 27.1905 43.591 27.2673C43.8215 27.3442 44.0031 27.449 44.1358 27.5747C44.2686 27.7075 44.3594 27.8611 44.4153 28.0358C44.4642 28.2104 44.4921 28.392 44.4921 28.5877C44.4921 28.7972 44.4642 28.9928 44.4083 29.1745C44.3524 29.3631 44.2616 29.5237 44.1289 29.6635C43.9891 29.8032 43.8075 29.9149 43.577 29.9988C43.3395 30.0826 43.0461 30.1175 42.6828 30.1175H41.5092V32.1364H41.0901V27.1486ZM42.6898 29.7473C42.9692 29.7473 43.1928 29.7263 43.3744 29.6704C43.549 29.6146 43.6888 29.5377 43.7935 29.4399C43.8913 29.3421 43.9612 29.2234 44.0031 29.0836C44.038 28.9439 44.059 28.7902 44.059 28.6086C44.059 28.427 44.038 28.2663 43.9961 28.1266C43.9542 27.9939 43.8774 27.8821 43.7726 27.7913C43.6678 27.7005 43.5281 27.6306 43.3534 27.5887C43.1718 27.5468 42.9483 27.5188 42.6828 27.5188H41.5092V29.7473H42.6898Z" fill="white"/>
<path d="M47.6383 28.5387H48.0435V29.1256C48.1832 28.923 48.3509 28.7623 48.5395 28.6505C48.7211 28.5387 48.9237 28.4829 49.1333 28.4829C49.1822 28.4829 49.2311 28.4898 49.273 28.4898C49.3149 28.4898 49.3638 28.4968 49.4197 28.5038L49.3708 28.888C49.2869 28.8741 49.2101 28.8671 49.1402 28.8671C49.0145 28.8671 48.8957 28.895 48.77 28.9369C48.6443 28.9789 48.5255 29.0557 48.4137 29.1605C48.302 29.2583 48.2181 29.3701 48.1483 29.5028C48.0784 29.6355 48.0435 29.7892 48.0435 29.9708V32.1364H47.6383V28.5387Z" fill="white"/>
<path d="M52.388 28.5387H52.7932V32.1364H52.388V28.5387ZM52.3601 27.1486H52.8211V27.7563H52.3601V27.1486Z" fill="white"/>
<path d="M55.7209 28.5387H56.189L57.4115 31.6963L58.6619 28.5387H59.102L57.649 32.1364H57.1739L55.7209 28.5387Z" fill="white"/>
<path d="M64.3 31.6264C64.2372 31.7033 64.1673 31.7801 64.0835 31.85C63.9997 31.9198 63.9019 31.9827 63.7971 32.0386C63.6853 32.0945 63.5665 32.1434 63.4408 32.1713C63.3151 32.2063 63.1753 32.2202 63.0217 32.2202C62.6444 32.2202 62.3371 32.1294 62.1135 31.9478C61.883 31.7662 61.7712 31.5007 61.7712 31.1374C61.7712 30.8999 61.8201 30.6973 61.9249 30.5437C62.0227 30.39 62.1624 30.2712 62.3301 30.1804C62.4977 30.0966 62.6933 30.0337 62.9099 29.9988C63.1264 29.9638 63.35 29.9429 63.5875 29.9289L64.2861 29.901V29.7892C64.2861 29.4399 64.2162 29.1814 64.0765 29.0138C63.9368 28.8531 63.6923 28.7693 63.343 28.7693C63.1684 28.7693 63.0217 28.7833 62.9029 28.8112C62.7841 28.8391 62.6863 28.8811 62.6095 28.9369C62.5257 28.9928 62.4628 29.0557 62.4209 29.1256C62.372 29.1954 62.3371 29.2792 62.3161 29.3631L61.9459 29.3072C62.0716 28.7204 62.5466 28.427 63.357 28.427C63.6085 28.427 63.818 28.4619 63.9927 28.5178C64.1603 28.5807 64.3 28.6715 64.4048 28.7833C64.5096 28.895 64.5865 29.0347 64.6354 29.2024C64.6773 29.3701 64.7052 29.5587 64.7052 29.7682V32.1364H64.3V31.6264ZM64.2931 30.2223L63.6294 30.2503C63.357 30.2642 63.1334 30.2852 62.9518 30.3271C62.7702 30.369 62.6235 30.4249 62.5117 30.4948C62.3999 30.5646 62.3161 30.6554 62.2672 30.7602C62.2183 30.865 62.1973 30.9907 62.1973 31.1305C62.1973 31.354 62.2532 31.5286 62.379 31.6614C62.5047 31.7941 62.7213 31.857 63.0286 31.857C63.1823 31.857 63.329 31.843 63.4827 31.8081C63.6364 31.7731 63.7621 31.7173 63.8599 31.6334C63.9438 31.5775 64.0066 31.5147 64.0625 31.4588C64.1184 31.4029 64.1603 31.347 64.1953 31.2772C64.2302 31.2073 64.2581 31.1305 64.2721 31.0466C64.2861 30.9628 64.2931 30.865 64.2931 30.7532V30.2223Z" fill="white"/>
<path d="M68.2567 28.8741H67.6978V28.5387H68.2567V27.5468H68.6619V28.5387H69.6818V28.8741H68.6619V31.2283C68.6619 31.4099 68.6968 31.5566 68.7736 31.6823C68.8435 31.8081 68.9762 31.864 69.1648 31.864C69.2836 31.864 69.3884 31.857 69.4722 31.836C69.556 31.822 69.6259 31.8011 69.6958 31.7731L69.7796 32.1015C69.7097 32.1294 69.6189 32.1574 69.5211 32.1783C69.4233 32.2063 69.2906 32.2132 69.1299 32.2132C68.9203 32.2132 68.7597 32.1783 68.6479 32.1085C68.5291 32.0386 68.4383 31.9478 68.3824 31.836C68.3266 31.7242 68.2916 31.5915 68.2776 31.4378C68.2637 31.2911 68.2567 31.1374 68.2567 30.9698V28.8741Z" fill="white"/>
<path d="M75.6025 31.1933C75.5466 31.5077 75.3929 31.7592 75.1554 31.9548C74.9109 32.1504 74.5686 32.2482 74.1215 32.2482C73.6046 32.2482 73.1994 32.0875 72.913 31.7522C72.6266 31.4169 72.4869 30.9628 72.4869 30.376C72.4869 30.0616 72.5218 29.7822 72.6056 29.5377C72.6895 29.3002 72.8012 29.0976 72.9479 28.93C73.0946 28.7623 73.2693 28.6366 73.4649 28.5527C73.6605 28.4689 73.884 28.427 74.1215 28.427C74.401 28.427 74.6385 28.4759 74.8341 28.5667C75.0297 28.6575 75.1834 28.7833 75.3091 28.9369C75.4349 29.0906 75.5257 29.2792 75.5816 29.4888C75.6374 29.7054 75.6654 29.9359 75.6654 30.1804V30.4389H72.899C72.899 30.6484 72.92 30.8371 72.9759 31.0187C73.0248 31.2003 73.1016 31.354 73.2064 31.4867C73.3042 31.6195 73.4369 31.7242 73.5906 31.8011C73.7443 31.8779 73.919 31.9129 74.1215 31.9129C74.3032 31.9129 74.4569 31.8989 74.5826 31.864C74.7083 31.829 74.8131 31.7801 74.897 31.7103C74.9808 31.6474 75.0437 31.5706 75.0926 31.4867C75.1415 31.4029 75.1834 31.3051 75.2113 31.1933H75.6025ZM75.2462 30.0896C75.2462 29.894 75.2253 29.7193 75.1834 29.5517C75.1415 29.391 75.0716 29.2513 74.9878 29.1325C74.897 29.0138 74.7782 28.923 74.6385 28.8531C74.4918 28.7902 74.3171 28.7553 74.1215 28.7553C73.7723 28.7553 73.4928 28.8671 73.2833 29.0836C73.0737 29.3072 72.9479 29.6425 72.906 30.0896H75.2462Z" fill="white"/>
<path d="M82.904 27.1486H83.3302V31.7382H86.0406L85.9498 32.1364H82.904V27.1486Z" fill="white"/>
<path d="M89.0571 28.5387H89.4623V32.1364H89.0571V28.5387ZM89.0291 27.1486H89.4902V27.7563H89.0291V27.1486Z" fill="white"/>
<path d="M92.8371 28.5387H93.2422V29.1325C93.4169 28.895 93.6055 28.7204 93.8081 28.6016C94.0107 28.4899 94.2202 28.427 94.4298 28.427C94.7023 28.427 94.9188 28.4899 95.0865 28.6156C95.2541 28.7413 95.3729 28.909 95.4567 29.1325C95.6174 28.909 95.806 28.7413 96.0296 28.6156C96.2461 28.4899 96.4836 28.427 96.7351 28.427C97.0774 28.427 97.3499 28.5248 97.5455 28.7064C97.7411 28.895 97.8389 29.1954 97.8389 29.6006V32.1364H97.4337V29.7473C97.4337 29.5657 97.4127 29.412 97.3848 29.2862C97.3568 29.1675 97.3079 29.0697 97.2451 28.9928C97.1822 28.923 97.1054 28.8671 97.0145 28.8391C96.9167 28.8112 96.812 28.7902 96.6862 28.7902C96.5744 28.7902 96.4557 28.8112 96.316 28.8531C96.1762 28.895 96.0505 28.9649 95.9248 29.0697C95.813 29.1605 95.7152 29.2653 95.6453 29.391C95.5755 29.5168 95.5406 29.6635 95.5406 29.8311V32.1364H95.1354V29.7543C95.1354 29.405 95.0725 29.1605 94.9538 29.0138C94.828 28.8671 94.6464 28.7902 94.4019 28.7902C94.2622 28.7902 94.1294 28.8252 94.0037 28.8811C93.8779 28.9369 93.7592 29.0208 93.6404 29.1256C93.5985 29.1675 93.5496 29.2094 93.5007 29.2583C93.4518 29.3142 93.4099 29.3701 93.375 29.4399C93.3331 29.5098 93.3051 29.5936 93.2772 29.6844C93.2492 29.7822 93.2422 29.887 93.2422 30.0058V32.1364H92.8371V28.5387Z" fill="white"/>
<path d="M101.189 28.5387H101.594V32.1364H101.189V28.5387ZM101.161 27.1486H101.622V27.7563H101.161V27.1486Z" fill="white"/>
<path d="M105.171 28.8741H104.613V28.5387H105.171V27.5468H105.577V28.5387H106.596V28.8741H105.577V31.2283C105.577 31.4099 105.611 31.5566 105.688 31.6823C105.758 31.8081 105.891 31.864 106.08 31.864C106.198 31.864 106.303 31.857 106.387 31.836C106.471 31.822 106.541 31.8011 106.61 31.7731L106.694 32.1015C106.624 32.1294 106.534 32.1574 106.436 32.1783C106.338 32.2063 106.205 32.2132 106.045 32.2132C105.835 32.2132 105.674 32.1783 105.563 32.1085C105.444 32.0386 105.353 31.9478 105.297 31.836C105.241 31.7242 105.206 31.5915 105.192 31.4378C105.178 31.2911 105.171 31.1374 105.171 30.9698V28.8741Z" fill="white"/>
<path d="M112.517 31.1933C112.461 31.5077 112.308 31.7592 112.07 31.9548C111.826 32.1504 111.483 32.2482 111.036 32.2482C110.519 32.2482 110.114 32.0875 109.828 31.7522C109.541 31.4169 109.402 30.9628 109.402 30.376C109.402 30.0616 109.436 29.7822 109.52 29.5377C109.604 29.3002 109.716 29.0976 109.863 28.93C110.009 28.7623 110.184 28.6366 110.38 28.5527C110.575 28.4689 110.799 28.427 111.036 28.427C111.316 28.427 111.553 28.4759 111.749 28.5667C111.944 28.6575 112.098 28.7833 112.224 28.9369C112.35 29.0906 112.44 29.2792 112.496 29.4888C112.552 29.7054 112.58 29.9359 112.58 30.1804V30.4389H109.814C109.814 30.6484 109.835 30.8371 109.891 31.0187C109.939 31.2003 110.016 31.354 110.121 31.4867C110.219 31.6195 110.352 31.7242 110.505 31.8011C110.659 31.8779 110.834 31.9129 111.036 31.9129C111.218 31.9129 111.372 31.8989 111.497 31.864C111.623 31.829 111.728 31.7801 111.812 31.7103C111.895 31.6474 111.958 31.5706 112.007 31.4867C112.056 31.4029 112.098 31.3051 112.126 31.1933H112.517ZM112.161 30.0896C112.161 29.894 112.14 29.7193 112.098 29.5517C112.056 29.391 111.986 29.2513 111.902 29.1325C111.812 29.0138 111.693 28.923 111.553 28.8531C111.406 28.7902 111.232 28.7553 111.036 28.7553C110.687 28.7553 110.408 28.8671 110.198 29.0836C109.988 29.3072 109.863 29.6425 109.821 30.0896H112.161Z" fill="white"/>
<path d="M118.473 31.5985C118.319 31.8011 118.138 31.9618 117.942 32.0735C117.746 32.1923 117.502 32.2482 117.223 32.2482C116.957 32.2482 116.727 32.1993 116.531 32.0945C116.335 31.9967 116.182 31.857 116.056 31.6823C115.93 31.5147 115.832 31.3121 115.777 31.0885C115.714 30.865 115.686 30.6275 115.686 30.376C115.686 29.7613 115.825 29.2862 116.112 28.9439C116.398 28.6016 116.796 28.427 117.299 28.427C117.495 28.427 117.691 28.4689 117.9 28.5527C118.103 28.6366 118.291 28.7972 118.473 29.0278V27.1486H118.878V32.1364H118.473V31.5985ZM118.494 30.1944C118.494 30.0337 118.48 29.894 118.466 29.7752C118.445 29.6565 118.417 29.5517 118.382 29.4609C118.34 29.3701 118.291 29.2862 118.229 29.2164C118.166 29.1465 118.096 29.0836 118.012 29.0138C117.9 28.93 117.788 28.8741 117.677 28.8322C117.565 28.7972 117.446 28.7763 117.306 28.7763C117.132 28.7763 116.971 28.8112 116.831 28.8671C116.685 28.923 116.559 29.0138 116.454 29.1395C116.349 29.2653 116.266 29.4329 116.21 29.6285C116.147 29.8311 116.119 30.0756 116.119 30.362C116.119 30.6554 116.147 30.9069 116.217 31.1025C116.286 31.2981 116.37 31.4588 116.482 31.5775C116.587 31.6963 116.706 31.7801 116.838 31.829C116.971 31.8779 117.104 31.8989 117.244 31.8989C117.383 31.8989 117.516 31.8849 117.628 31.85C117.74 31.822 117.858 31.7592 117.984 31.6684C118.145 31.5496 118.27 31.3959 118.361 31.2073C118.445 31.0257 118.494 30.7882 118.494 30.5087V30.1944Z" fill="white"/>
</svg>
