<svg width="37" height="37" viewBox="0 0 37 37" fill="none" xmlns="http://www.w3.org/2000/svg">
<path d="M13.3659 21.5834H6.16634C4.47051 21.5834 3.08301 22.9709 3.08301 24.6667V33.9167H13.3659V21.5834Z" stroke="white" stroke-width="1.5" stroke-miterlimit="10" stroke-linecap="round" stroke-linejoin="round"/>
<path d="M20.5502 15.4166H16.4339C14.7381 15.4166 13.3506 16.8041 13.3506 18.5V33.9166H23.6335V18.5C23.6335 16.8041 22.2614 15.4166 20.5502 15.4166Z" stroke="white" stroke-width="1.5" stroke-miterlimit="10" stroke-linecap="round" stroke-linejoin="round"/>
<path d="M30.8334 26.2084H23.6338V33.9167H33.9167V29.2917C33.9167 27.5959 32.5292 26.2084 30.8334 26.2084Z" stroke="white" stroke-width="1.5" stroke-miterlimit="10" stroke-linecap="round" stroke-linejoin="round"/>
<path d="M19.3013 3.19122L20.1184 4.82538C20.2263 5.05663 20.5192 5.27246 20.7659 5.3033L22.2459 5.54997C23.1863 5.70414 23.4175 6.39786 22.7392 7.06077L21.583 8.21702C21.3825 8.41744 21.2746 8.78745 21.3363 9.04954L21.66 10.4679C21.9221 11.5933 21.3209 12.025 20.3342 11.4391L18.9467 10.6221C18.7 10.4679 18.2838 10.4679 18.0371 10.6221L16.6496 11.4391C15.663 12.025 15.0617 11.5933 15.3238 10.4679L15.6475 9.04954C15.7092 8.78745 15.6013 8.40202 15.4009 8.21702L14.26 7.0762C13.5817 6.39787 13.7975 5.71952 14.7534 5.56535L16.2334 5.31873C16.48 5.27248 16.773 5.05665 16.8809 4.84082L17.698 3.20661C18.145 2.31244 18.8542 2.31247 19.3013 3.19122Z" stroke="white" stroke-width="1.5" stroke-linecap="round" stroke-linejoin="round"/>
</svg>
