<svg width="50" height="50" viewBox="0 0 50 50" fill="none" xmlns="http://www.w3.org/2000/svg">
<mask id="mask0_537_384" style="mask-type:alpha" maskUnits="userSpaceOnUse" x="0" y="0" width="50" height="50">
<rect width="50" height="50" fill="#D9D9D9"/>
</mask>
<g mask="url(#mask0_537_384)">
<path d="M34.75 18.0384C34.6575 18.023 34.5496 18.023 34.4571 18.0384C32.3296 17.9613 30.6338 16.2192 30.6338 14.0609C30.6338 11.8563 32.4067 10.0834 34.6113 10.0834C36.8159 10.0834 38.5888 11.8717 38.5888 14.0609C38.5734 16.2192 36.8775 17.9613 34.75 18.0384Z" stroke="white" stroke-width="1.5" stroke-linecap="round" stroke-linejoin="round"/>
<path d="M33.162 29.2617C35.2741 29.6163 37.602 29.2463 39.2361 28.1517C41.4099 26.7025 41.4099 24.3284 39.2361 22.8792C37.5866 21.7846 35.2278 21.4146 33.1157 21.7846" stroke="white" stroke-width="1.5" stroke-linecap="round" stroke-linejoin="round"/>
<path d="M16.204 18.0384C16.2965 18.023 16.4044 18.023 16.4969 18.0384C18.6244 17.9613 20.3202 16.2192 20.3202 14.0609C20.3202 11.8563 18.5473 10.0834 16.3427 10.0834C14.1382 10.0834 12.3652 11.8717 12.3652 14.0609C12.3807 16.2192 14.0765 17.9613 16.204 18.0384Z" stroke="white" stroke-width="1.5" stroke-linecap="round" stroke-linejoin="round"/>
<path d="M17.7919 29.2617C15.6798 29.6163 13.3519 29.2463 11.7177 28.1517C9.54396 26.7025 9.54396 24.3284 11.7177 22.8792C13.3673 21.7846 15.726 21.4146 17.8381 21.7846" stroke="white" stroke-width="1.5" stroke-linecap="round" stroke-linejoin="round"/>
<path d="M25.5 29.5546C25.4075 29.5392 25.2996 29.5392 25.2071 29.5546C23.0796 29.4775 21.3838 27.7354 21.3838 25.5771C21.3838 23.3725 23.1567 21.5996 25.3613 21.5996C27.5659 21.5996 29.3388 23.3879 29.3388 25.5771C29.3234 27.7354 27.6275 29.4929 25.5 29.5546Z" stroke="white" stroke-width="1.5" stroke-linecap="round" stroke-linejoin="round"/>
<path d="M21.0136 34.4108C18.8399 35.86 18.8399 38.2341 21.0136 39.6833C23.4803 41.3329 27.5194 41.3329 29.9861 39.6833C32.1599 38.2341 32.1599 35.86 29.9861 34.4108C27.5349 32.7766 23.4803 32.7766 21.0136 34.4108Z" stroke="white" stroke-width="1.5" stroke-linecap="round" stroke-linejoin="round"/>
</g>
</svg>
