<svg width="50" height="50" viewBox="0 0 50 50" fill="none" xmlns="http://www.w3.org/2000/svg">
<path d="M9.31267 25.3541C8.91683 25.3541 8.521 25.2083 8.2085 24.8958L5.68767 22.3749L3.16682 24.8958C2.56266 25.5 1.56266 25.5 0.958496 24.8958C0.354329 24.2916 0.354329 23.2916 0.958496 22.6875L4.58349 19.0625C5.18766 18.4583 6.18767 18.4583 6.79184 19.0625L10.4168 22.6875C11.021 23.2916 11.021 24.2916 10.4168 24.8958C10.1252 25.2083 9.7085 25.3541 9.31267 25.3541Z" fill="white"/>
<path d="M44.2917 31.396C43.8958 31.396 43.5 31.2501 43.1875 30.9376L39.5625 27.3126C38.9583 26.7084 38.9583 25.7084 39.5625 25.1042C40.1667 24.5001 41.1667 24.5001 41.7708 25.1042L44.2917 27.6251L46.8125 25.1042C47.4167 24.5001 48.4167 24.5001 49.0208 25.1042C49.625 25.7084 49.625 26.7084 49.0208 27.3126L45.3958 30.9376C45.1042 31.2292 44.6875 31.396 44.2917 31.396Z" fill="white"/>
<path d="M44.2916 31.3959C43.4375 31.3959 42.7291 30.6876 42.7291 29.8334V25.0001C42.7291 15.2292 34.7708 7.27089 24.9999 7.27089C19.6041 7.27089 14.5624 9.68757 11.1666 13.9167C10.6249 14.5834 9.64577 14.6876 8.97911 14.1667C8.31244 13.6251 8.18745 12.6459 8.72912 11.9792C12.7083 7.00008 18.6458 4.16675 24.9999 4.16675C36.4999 4.16675 45.8541 13.5209 45.8541 25.0209V29.8543C45.8541 30.6876 45.1666 31.3959 44.2916 31.3959Z" fill="white"/>
<path d="M25.0007 45.854C13.5007 45.854 4.14648 36.4999 4.14648 24.9999V20.1665C4.14648 19.3123 4.85482 18.604 5.70898 18.604C6.56315 18.604 7.27148 19.3123 7.27148 20.1665V24.9999C7.27148 34.7707 15.2298 42.729 25.0007 42.729C30.3965 42.729 35.4382 40.3124 38.834 36.0832C39.3757 35.4165 40.3548 35.2915 41.0215 35.8332C41.6882 36.3749 41.8131 37.354 41.2715 38.0207C37.2923 42.9999 31.3548 45.854 25.0007 45.854Z" fill="white"/>
<path d="M27.875 26.5624H18.75C17.8958 26.5624 17.1875 25.8541 17.1875 24.9999V17.7083C17.1875 16.8541 17.8958 16.1458 18.75 16.1458H27.875C30.6458 16.1458 33.0833 18.5833 33.0833 21.3541C33.0833 24.2291 30.7292 26.5624 27.875 26.5624ZM20.3125 23.4374H27.8542C29 23.4374 29.9375 22.4999 29.9375 21.3541C29.9375 20.4166 29 19.2708 27.8542 19.2708H20.3125V23.4374Z" fill="white"/>
<path d="M29.1667 33.8542H18.75C17.8958 33.8542 17.1875 33.1458 17.1875 32.2917V25C17.1875 24.1458 17.8958 23.4375 18.75 23.4375H29.1667C32.3333 23.4375 34.8958 25.7708 34.8958 28.6458C34.8958 31.5208 32.3333 33.8542 29.1667 33.8542ZM20.3125 30.7292H29.1667C30.6042 30.7292 31.7708 29.7917 31.7708 28.6458C31.7708 27.5 30.6042 26.5625 29.1667 26.5625H20.3125V30.7292Z" fill="white"/>
<path d="M24.583 37.5001C23.7288 37.5001 23.0205 36.7917 23.0205 35.9376V32.2917C23.0205 31.4376 23.7288 30.7292 24.583 30.7292C25.4372 30.7292 26.1455 31.4376 26.1455 32.2917V35.9376C26.1455 36.7917 25.4372 37.5001 24.583 37.5001Z" fill="white"/>
<path d="M24.583 19.2708C23.7288 19.2708 23.0205 18.5625 23.0205 17.7083V14.0625C23.0205 13.2083 23.7288 12.5 24.583 12.5C25.4372 12.5 26.1455 13.2083 26.1455 14.0625V17.7083C26.1455 18.5625 25.4372 19.2708 24.583 19.2708Z" fill="white"/>
</svg>
