<svg width="37" height="37" viewBox="0 0 37 37" fill="none" xmlns="http://www.w3.org/2000/svg">
<path d="M33.9167 23.125C33.9167 29.0912 29.0912 33.9167 23.125 33.9167L24.7438 31.2187" stroke="white" stroke-width="1.5" stroke-linecap="round" stroke-linejoin="round"/>
<path d="M3.08301 13.875C3.08301 7.90879 7.90842 3.08337 13.8747 3.08337L12.2559 5.78129" stroke="white" stroke-width="1.5" stroke-linecap="round" stroke-linejoin="round"/>
<path d="M21.1211 6.86047L27.2569 10.4063L33.3311 6.87591" stroke="white" stroke-width="1.5" stroke-linecap="round" stroke-linejoin="round"/>
<path d="M27.2568 16.6809V10.3909" stroke="white" stroke-width="1.5" stroke-linecap="round" stroke-linejoin="round"/>
<path d="M25.8073 3.40712L22.1073 5.45747C21.2748 5.91997 20.5811 7.09163 20.5811 8.04746V11.9634C20.5811 12.9192 21.2594 14.0908 22.1073 14.5533L25.8073 16.6038C26.5936 17.0509 27.8885 17.0509 28.6902 16.6038L32.3902 14.5533C33.2227 14.0908 33.9165 12.9192 33.9165 11.9634V8.04746C33.9165 7.09163 33.2381 5.91997 32.3902 5.45747L28.6902 3.40712C27.904 2.97546 26.609 2.97546 25.8073 3.40712Z" stroke="white" stroke-width="1.5" stroke-linecap="round" stroke-linejoin="round"/>
<path d="M3.62305 23.8187L9.74347 27.3645L15.833 23.8342" stroke="white" stroke-width="1.5" stroke-linecap="round" stroke-linejoin="round"/>
<path d="M9.74316 33.6391V27.3491" stroke="white" stroke-width="1.5" stroke-linecap="round" stroke-linejoin="round"/>
<path d="M8.30926 20.3654L4.60927 22.4157C3.77677 22.8782 3.08301 24.0499 3.08301 25.0057V28.9216C3.08301 29.8774 3.76135 31.0491 4.60927 31.5116L8.30926 33.562C9.09551 34.0091 10.3905 34.0091 11.1922 33.562L14.8922 31.5116C15.7247 31.0491 16.4184 29.8774 16.4184 28.9216V25.0057C16.4184 24.0499 15.7401 22.8782 14.8922 22.4157L11.1922 20.3654C10.3905 19.9337 9.09551 19.9337 8.30926 20.3654Z" stroke="white" stroke-width="1.5" stroke-linecap="round" stroke-linejoin="round"/>
</svg>
