<svg width="37" height="37" viewBox="0 0 37 37" fill="none" xmlns="http://www.w3.org/2000/svg">
<path d="M16.0799 28.3204C15.8487 28.3204 15.6328 28.2587 15.4324 28.12C15.1087 27.9041 14.9237 27.5495 14.9237 27.1641C14.9237 26.9329 14.9083 26.6862 14.8774 26.4395C14.7387 25.345 14.2453 24.3891 13.4128 23.5566C12.5803 22.7241 11.5474 22.2 10.4374 22.0612C10.2524 22.0458 9.99035 22.0304 9.74368 22.0458C9.34285 22.0766 8.97285 21.907 8.7416 21.5833C8.51035 21.275 8.44868 20.8587 8.57202 20.4887C8.80327 19.8566 9.14243 19.2862 9.54327 18.8237L11.9174 15.8329C16.0028 10.73 24.2816 4.59413 30.3404 2.15829C31.6199 1.66496 32.992 1.95788 33.9324 2.88288C34.9037 3.85413 35.1966 5.24163 34.6879 6.50579C32.252 12.58 26.1316 20.8433 21.0287 24.9287L17.9916 27.3645C17.4212 27.7808 16.9587 28.0429 16.4962 28.2279C16.3728 28.2895 16.2187 28.3204 16.0799 28.3204ZM11.6245 19.9491C12.9195 20.2883 14.0758 20.9666 15.047 21.9379C16.0183 22.8937 16.6658 24.0037 16.9895 25.237L19.5949 23.1404C24.4358 19.2708 30.2479 11.4237 32.5449 5.65788C32.7762 5.08746 32.4524 4.68663 32.2983 4.54788C32.1904 4.43996 31.7895 4.10079 31.1728 4.33204C25.4378 6.64454 17.5908 12.4566 13.7058 17.2975L11.6245 19.9491Z" fill="white"/>
<path d="M6.28953 35.073C5.13328 35.073 4.02328 34.6105 3.19078 33.778C2.23495 32.8221 1.77245 31.4963 1.92661 30.1396L2.34286 26.3471C2.7437 22.5855 5.82703 19.795 9.65036 19.718C9.94328 19.7025 10.3287 19.718 10.6833 19.7488C12.3637 19.9646 13.8591 20.72 15.0616 21.9225C16.2487 23.1096 16.9579 24.528 17.1737 26.1159C17.2199 26.455 17.2508 26.825 17.2508 27.1488C17.2508 29.1838 16.4645 31.08 15.0462 32.5138C13.8591 33.6855 12.3329 34.41 10.6062 34.6259L6.79828 35.0421C6.6287 35.0575 6.45911 35.073 6.28953 35.073ZM9.94328 22.0459C9.88161 22.0459 9.80453 22.0459 9.74286 22.0459C7.41495 22.0921 4.94828 23.68 4.63995 26.6092L4.2237 30.4017C4.14661 31.0492 4.37786 31.6813 4.82495 32.1438C5.27203 32.5909 5.90411 32.8221 6.5362 32.745L10.3287 32.3288C11.5158 32.1746 12.5795 31.6813 13.3812 30.8796C14.3679 29.893 14.9229 28.5671 14.9229 27.1488C14.9229 26.9175 14.9074 26.6709 14.8766 26.4242C14.7379 25.3296 14.2445 24.3738 13.412 23.5413C12.5795 22.7088 11.5466 22.1846 10.4366 22.0459C10.3133 22.0459 10.1283 22.0459 9.94328 22.0459Z" fill="white"/>
<path d="M21.9532 23.4642C21.3211 23.4642 20.797 22.94 20.797 22.308C20.797 18.9163 18.0374 16.1721 14.6611 16.1721C14.029 16.1721 13.5049 15.648 13.5049 15.0159C13.5049 14.3838 14.0136 13.8596 14.6457 13.8596C19.3015 13.8596 23.094 17.6521 23.094 22.308C23.1095 22.9555 22.5853 23.4642 21.9532 23.4642Z" fill="white"/>
</svg>
