<svg width="37" height="37" viewBox="0 0 37 37" fill="none" xmlns="http://www.w3.org/2000/svg">
<path d="M33.9163 35.073H7.70801C4.51676 35.073 1.92676 32.483 1.92676 29.2917V3.08337C1.92676 2.45129 2.45092 1.92712 3.08301 1.92712C3.71509 1.92712 4.23926 2.45129 4.23926 3.08337V29.2917C4.23926 31.2034 5.79634 32.7605 7.70801 32.7605H33.9163C34.5484 32.7605 35.0726 33.2846 35.0726 33.9167C35.0726 34.5488 34.5484 35.073 33.9163 35.073Z" fill="white"/>
<path d="M7.70773 27.3646C7.44565 27.3646 7.16815 27.2721 6.95232 27.0871C6.4744 26.6709 6.41273 25.9463 6.82898 25.453L13.9052 17.1896C14.6761 16.2955 15.7861 15.7559 16.9577 15.7096C18.1294 15.6788 19.2856 16.1105 20.1181 16.943L21.5827 18.4076C21.9681 18.793 22.4769 18.978 23.0165 18.978C23.5561 18.9625 24.0494 18.7159 24.404 18.2996L31.4802 10.0363C31.8965 9.5584 32.6211 9.49671 33.1144 9.91296C33.5923 10.3292 33.654 11.0538 33.2377 11.5471L26.1615 19.8105C25.3906 20.7046 24.2806 21.2442 23.109 21.2905C21.9373 21.3213 20.7811 20.8896 19.9486 20.0571L18.4994 18.5925C18.114 18.2071 17.6052 18.0067 17.0656 18.0221C16.5261 18.0376 16.0327 18.2842 15.6782 18.7005L8.6019 26.9638C8.35523 27.2259 8.03148 27.3646 7.70773 27.3646Z" fill="white"/>
</svg>
