<svg width="37" height="37" viewBox="0 0 37 37" fill="none" xmlns="http://www.w3.org/2000/svg">
<path d="M32.375 10.7917V26.2084C32.375 30.8334 30.0625 33.9167 24.6667 33.9167H12.3333C6.9375 33.9167 4.625 30.8334 4.625 26.2084V10.7917C4.625 6.16671 6.9375 3.08337 12.3333 3.08337H24.6667C30.0625 3.08337 32.375 6.16671 32.375 10.7917Z" stroke="white" stroke-width="1.5" stroke-miterlimit="10" stroke-linecap="round" stroke-linejoin="round"/>
<path d="M25.0521 16.9584H11.9479C10.4679 16.9584 9.25 15.7405 9.25 14.2605V10.4063C9.25 8.92629 10.4679 7.70837 11.9479 7.70837H25.0521C26.5321 7.70837 27.75 8.92629 27.75 10.4063V14.2605C27.75 15.7405 26.5321 16.9584 25.0521 16.9584Z" stroke="white" stroke-width="1.5" stroke-miterlimit="10" stroke-linecap="round" stroke-linejoin="round"/>
<path d="M15.8788 23.5568L12.333 27.1026" stroke="white" stroke-width="1.5" stroke-miterlimit="10" stroke-linecap="round" stroke-linejoin="round"/>
<path d="M12.3799 23.6029L15.9257 27.1487" stroke="white" stroke-width="1.5" stroke-miterlimit="10" stroke-linecap="round" stroke-linejoin="round"/>
<path d="M25.4219 23.6338H25.4527" stroke="white" stroke-width="2" stroke-miterlimit="10" stroke-linecap="round" stroke-linejoin="round"/>
<path d="M22.3389 26.9791V26.9482" stroke="white" stroke-width="2" stroke-miterlimit="10" stroke-linecap="round" stroke-linejoin="round"/>
</svg>
