<svg width="37" height="37" viewBox="0 0 37 37" fill="none" xmlns="http://www.w3.org/2000/svg">
<path d="M13.1038 29.2453H12.333C6.16634 29.2453 3.08301 27.7037 3.08301 19.9953V12.287C3.08301 6.12032 6.16634 3.03699 12.333 3.03699H24.6663C30.833 3.03699 33.9163 6.12032 33.9163 12.287V19.9953C33.9163 26.162 30.833 29.2453 24.6663 29.2453H23.8955C23.4176 29.2453 22.9551 29.4766 22.6622 29.862L20.3497 32.9454C19.3322 34.302 17.6672 34.302 16.6497 32.9454L14.3372 29.862C14.0905 29.5229 13.5355 29.2453 13.1038 29.2453Z" stroke="white" stroke-width="1.5" stroke-miterlimit="10" stroke-linecap="round" stroke-linejoin="round"/>
<path d="M12.3333 13.4125L9.25 16.4958L12.3333 19.5791" stroke="white" stroke-width="1.5" stroke-miterlimit="10" stroke-linecap="round" stroke-linejoin="round"/>
<path d="M24.667 13.4125L27.7503 16.4958L24.667 19.5791" stroke="white" stroke-width="1.5" stroke-miterlimit="10" stroke-linecap="round" stroke-linejoin="round"/>
<path d="M20.0413 12.9037L16.958 20.0879" stroke="white" stroke-width="1.5" stroke-miterlimit="10" stroke-linecap="round" stroke-linejoin="round"/>
</svg>
