<svg width="37" height="37" viewBox="0 0 37 37" fill="none" xmlns="http://www.w3.org/2000/svg">
<path d="M20.1189 25.0519H17.2206C15.1702 25.0519 13.4897 23.3253 13.4897 21.1978C13.4897 20.5657 14.0139 20.0415 14.646 20.0415C15.2781 20.0415 15.8022 20.5657 15.8022 21.1978C15.8022 22.0457 16.4344 22.7394 17.2206 22.7394H20.1189C20.7201 22.7394 21.1981 22.1999 21.1981 21.5369C21.1981 20.7044 20.9668 20.5811 20.4427 20.3961L15.8022 18.7774C14.8156 18.4382 13.4897 17.7136 13.4897 15.4474C13.4897 13.5203 15.016 11.9324 16.8814 11.9324H19.7797C21.8301 11.9324 23.5106 13.659 23.5106 15.7865C23.5106 16.4186 22.9864 16.9428 22.3543 16.9428C21.7222 16.9428 21.1981 16.4186 21.1981 15.7865C21.1981 14.9386 20.566 14.2449 19.7797 14.2449H16.8814C16.2802 14.2449 15.8022 14.7845 15.8022 15.4474C15.8022 16.2799 16.0335 16.4032 16.5576 16.5882L21.1981 18.2069C22.1847 18.5461 23.5106 19.2707 23.5106 21.5369C23.5106 23.4794 21.9843 25.0519 20.1189 25.0519Z" fill="white"/>
<path d="M18.5 26.5938C17.8679 26.5938 17.3438 26.0696 17.3438 25.4375V11.5625C17.3438 10.9304 17.8679 10.4062 18.5 10.4062C19.1321 10.4062 19.6562 10.9304 19.6562 11.5625V25.4375C19.6562 26.0696 19.1321 26.5938 18.5 26.5938Z" fill="white"/>
<path d="M18.5002 35.0728C9.35808 35.0728 1.92725 27.642 1.92725 18.4999C1.92725 9.35784 9.35808 1.927 18.5002 1.927C19.1322 1.927 19.6564 2.45117 19.6564 3.08325C19.6564 3.71534 19.1322 4.2395 18.5002 4.2395C10.6377 4.2395 4.23975 10.6374 4.23975 18.4999C4.23975 26.3624 10.6377 32.7603 18.5002 32.7603C26.3627 32.7603 32.7606 26.3624 32.7606 18.4999C32.7606 17.8678 33.2847 17.3437 33.9168 17.3437C34.5489 17.3437 35.0731 17.8678 35.0731 18.4999C35.0731 27.642 27.6422 35.0728 18.5002 35.0728Z" fill="white"/>
<path d="M32.3752 11.9479H26.2085C25.5764 11.9479 25.0522 11.4238 25.0522 10.7917V4.625C25.0522 3.99292 25.5764 3.46875 26.2085 3.46875C26.8406 3.46875 27.3647 3.99292 27.3647 4.625V9.63542H32.3752C33.0072 9.63542 33.5314 10.1596 33.5314 10.7917C33.5314 11.4238 33.0072 11.9479 32.3752 11.9479Z" fill="white"/>
<path d="M26.2081 11.9479C25.9151 11.9479 25.6222 11.84 25.391 11.6087C24.9439 11.1616 24.9439 10.4216 25.391 9.97455L33.0993 2.26622C33.5464 1.81914 34.2864 1.81914 34.7335 2.26622C35.1806 2.7133 35.1806 3.4533 34.7335 3.90038L27.0251 11.6087C26.7939 11.84 26.501 11.9479 26.2081 11.9479Z" fill="white"/>
</svg>
