<svg width="37" height="37" viewBox="0 0 37 37" fill="none" xmlns="http://www.w3.org/2000/svg">
<path d="M26.1772 20.35C25.8843 20.35 25.576 20.2266 25.3601 20.0108L17.0351 11.6704C16.6497 11.285 16.5881 10.6991 16.881 10.2366L19.4864 6.12037C20.211 4.97954 21.3056 4.27037 22.5851 4.13162C24.0189 3.99287 25.4989 4.54787 26.6551 5.70412L31.3264 10.3754C32.4364 11.4854 32.9914 12.9808 32.8218 14.4608C32.6831 15.7558 31.9893 16.8812 30.9101 17.5595L26.7939 20.165C26.6089 20.2883 26.3931 20.35 26.1772 20.35ZM19.3168 10.6991L26.3468 17.7291L29.6922 15.617C30.1701 15.3087 30.4785 14.8154 30.5401 14.2141C30.6326 13.4433 30.3089 12.6262 29.7076 12.025L25.0364 7.35371C24.3735 6.69079 23.5718 6.33621 22.8472 6.44412C22.2614 6.50579 21.7835 6.82954 21.4443 7.36912L19.3168 10.6991Z" fill="white"/>
<path d="M9.08018 32.8992C7.7081 32.8992 6.47477 32.4059 5.54977 31.4963C4.4706 30.4171 3.99268 28.9217 4.1931 27.2567L5.70393 14.4146C6.16643 10.5296 7.87768 9.11127 11.8706 9.34252L17.9139 9.6971C18.546 9.74335 19.0393 10.2829 18.9931 10.915C18.9468 11.5471 18.4073 12.0404 17.7752 11.9942L11.7318 11.655C8.98768 11.4854 8.30935 12.025 8.00102 14.6921L6.49018 27.5188C6.38227 28.4592 6.62893 29.2917 7.18393 29.8467C7.75435 30.4017 8.58685 30.6638 9.52727 30.5404L22.3539 29.0296C25.0518 28.7059 25.6531 27.9967 25.391 25.345L25.021 19.2554C24.9902 18.6234 25.4681 18.0684 26.1002 18.0375C26.7323 17.9913 27.2873 18.4846 27.3181 19.1167L27.6727 25.16C28.0427 28.9988 26.5318 30.8488 22.6006 31.3267L9.77393 32.8375C9.5581 32.8838 9.31143 32.8992 9.08018 32.8992Z" fill="white"/>
<path d="M7.10747 31.0954C6.81456 31.0954 6.52164 30.9875 6.29039 30.7562C5.84331 30.3092 5.84331 29.5692 6.29039 29.1221L10.9771 24.4354C11.4241 23.9883 12.1641 23.9883 12.6112 24.4354C13.0583 24.8825 13.0583 25.6225 12.6112 26.0696L7.92456 30.7562C7.69331 30.9875 7.40039 31.0954 7.10747 31.0954Z" fill="white"/>
</svg>
