<svg width="37" height="37" viewBox="0 0 37 37" fill="none" xmlns="http://www.w3.org/2000/svg">
<path d="M27.7498 12.1947C27.7036 12.1947 27.6727 12.1947 27.6265 12.1947H27.5494C24.6357 12.1022 22.4619 9.85138 22.4619 7.07638C22.4619 4.23971 24.7744 1.94263 27.5957 1.94263C30.4169 1.94263 32.7294 4.25513 32.7294 7.07638C32.714 9.8668 30.5402 12.1176 27.7652 12.2101C27.7652 12.1947 27.7652 12.1947 27.7498 12.1947ZM27.5957 4.23972C26.0386 4.23972 24.7744 5.50389 24.7744 7.06097C24.7744 8.58722 25.9615 9.82056 27.4878 9.88222C27.5032 9.86681 27.6265 9.86681 27.7652 9.88222C29.2607 9.80514 30.4169 8.57181 30.4323 7.06097C30.4323 5.50389 29.1682 4.23972 27.5957 4.23972Z" fill="white"/>
<path d="M27.7654 23.5567C27.1642 23.5567 26.5629 23.5104 25.9617 23.4025C25.3296 23.2946 24.9134 22.6933 25.0213 22.0613C25.1292 21.4292 25.7304 21.0129 26.3625 21.1208C28.2588 21.4446 30.2629 21.09 31.6042 20.1959C32.3288 19.7179 32.7142 19.1167 32.7142 18.5154C32.7142 17.9142 32.3134 17.3283 31.6042 16.8504C30.2629 15.9562 28.2279 15.6017 26.3163 15.9408C25.6842 16.0642 25.0829 15.6325 24.975 15.0004C24.8671 14.3683 25.2834 13.7671 25.9154 13.6592C28.4284 13.2121 31.0338 13.69 32.8838 14.9233C34.2404 15.8329 35.0267 17.1279 35.0267 18.5154C35.0267 19.8875 34.2559 21.1979 32.8838 22.1229C31.4809 23.0479 29.6617 23.5567 27.7654 23.5567Z" fill="white"/>
<path d="M9.20399 12.1945C9.18857 12.1945 9.17315 12.1945 9.17315 12.1945C6.39815 12.102 4.2244 9.85116 4.20898 7.07616C4.20898 4.2395 6.52149 1.927 9.34274 1.927C12.164 1.927 14.4765 4.2395 14.4765 7.06075C14.4765 9.85117 12.3027 12.102 9.52774 12.1945L9.20399 11.0383L9.3119 12.1945C9.28107 12.1945 9.23482 12.1945 9.20399 12.1945ZM9.35815 9.88201C9.45065 9.88201 9.52774 9.882 9.62024 9.89742C10.9923 9.83575 12.1948 8.60241 12.1948 7.07616C12.1948 5.51908 10.9307 4.25491 9.37357 4.25491C7.81649 4.25491 6.55232 5.51908 6.55232 7.07616C6.55232 8.587 7.72398 9.80492 9.2194 9.89742C9.23482 9.882 9.29648 9.88201 9.35815 9.88201Z" fill="white"/>
<path d="M9.18801 23.5567C7.29176 23.5567 5.47259 23.0479 4.06967 22.1229C2.71301 21.2134 1.92676 19.9029 1.92676 18.5154C1.92676 17.1433 2.71301 15.8329 4.06967 14.9233C5.91967 13.69 8.52509 13.2121 11.038 13.6592C11.6701 13.7671 12.0863 14.3683 11.9784 15.0004C11.8705 15.6325 11.2693 16.0642 10.6372 15.9408C8.72551 15.6017 6.70593 15.9562 5.34926 16.8504C4.62468 17.3283 4.23926 17.9142 4.23926 18.5154C4.23926 19.1167 4.64009 19.7179 5.34926 20.1959C6.69051 21.09 8.69467 21.4446 10.5909 21.1208C11.223 21.0129 11.8243 21.4446 11.9322 22.0613C12.0401 22.6933 11.6238 23.2946 10.9918 23.4025C10.3905 23.5104 9.78926 23.5567 9.18801 23.5567Z" fill="white"/>
<path d="M18.4998 23.7108C18.4536 23.7108 18.4227 23.7108 18.3765 23.7108H18.2994C15.3857 23.6183 13.2119 21.3675 13.2119 18.5925C13.2119 15.7558 15.5244 13.4587 18.3457 13.4587C21.1669 13.4587 23.4794 15.7712 23.4794 18.5925C23.464 21.3829 21.2902 23.6337 18.5152 23.7262C18.5152 23.7108 18.5152 23.7108 18.4998 23.7108ZM18.3457 15.7558C16.7886 15.7558 15.5244 17.02 15.5244 18.5771C15.5244 20.1033 16.7115 21.3367 18.2378 21.3983C18.2532 21.3829 18.3765 21.3829 18.5152 21.3983C20.0107 21.3213 21.1669 20.0879 21.1823 18.5771C21.1823 17.0354 19.9182 15.7558 18.3457 15.7558Z" fill="white"/>
<path d="M18.4993 35.0884C16.6493 35.0884 14.7993 34.6105 13.3656 33.6392C12.0089 32.7296 11.2227 31.4346 11.2227 30.0471C11.2227 28.675 11.9935 27.3492 13.3656 26.4396C16.2485 24.5279 20.7656 24.5279 23.6331 26.4396C24.9897 27.3492 25.776 28.6442 25.776 30.0317C25.776 31.4038 25.0052 32.7296 23.6331 33.6392C22.1993 34.595 20.3493 35.0884 18.4993 35.0884ZM14.6452 28.3821C13.9206 28.86 13.5352 29.4613 13.5352 30.0625C13.5352 30.6638 13.936 31.2496 14.6452 31.7275C16.7264 33.1305 20.2568 33.1305 22.3381 31.7275C23.0627 31.2496 23.4481 30.6484 23.4481 30.0471C23.4481 29.4459 23.0472 28.86 22.3381 28.3821C20.2722 26.9792 16.7418 26.9946 14.6452 28.3821Z" fill="white"/>
</svg>
