<svg width="37" height="37" viewBox="0 0 37 37" fill="none" xmlns="http://www.w3.org/2000/svg">
<path d="M29.2913 24.6667V10.0208C29.2913 8.325 27.9038 6.9375 26.208 6.9375H19.2705" stroke="white" stroke-width="1.5" stroke-linecap="round" stroke-linejoin="round"/>
<path d="M23.125 3.08337L18.5 6.93754L23.125 10.7917" stroke="white" stroke-width="1.5" stroke-linecap="round" stroke-linejoin="round"/>
<path d="M7.70801 13.875V24.6667" stroke="white" stroke-width="1.5" stroke-linecap="round" stroke-linejoin="round"/>
<path d="M8.09342 13.1042C10.8606 13.1042 13.1038 10.861 13.1038 8.09379C13.1038 5.32661 10.8606 3.08337 8.09342 3.08337C5.32625 3.08337 3.08301 5.32661 3.08301 8.09379C3.08301 10.861 5.32625 13.1042 8.09342 13.1042Z" stroke="white" stroke-width="1.5" stroke-linecap="round" stroke-linejoin="round"/>
<path d="M7.70801 33.9166C10.2623 33.9166 12.333 31.8459 12.333 29.2916C12.333 26.7373 10.2623 24.6666 7.70801 24.6666C5.15369 24.6666 3.08301 26.7373 3.08301 29.2916C3.08301 31.8459 5.15369 33.9166 7.70801 33.9166Z" stroke="white" stroke-width="1.5" stroke-linecap="round" stroke-linejoin="round"/>
<path d="M29.292 33.9166C31.8463 33.9166 33.917 31.8459 33.917 29.2916C33.917 26.7373 31.8463 24.6666 29.292 24.6666C26.7377 24.6666 24.667 26.7373 24.667 29.2916C24.667 31.8459 26.7377 33.9166 29.292 33.9166Z" stroke="white" stroke-width="1.5" stroke-linecap="round" stroke-linejoin="round"/>
</svg>
