<svg width="37" height="37" viewBox="0 0 37 37" fill="none" xmlns="http://www.w3.org/2000/svg">
<path d="M17.7288 33.5313C9.01842 33.5313 1.92676 26.4396 1.92676 17.7292C1.92676 9.01879 9.01842 1.92712 17.7288 1.92712C26.4393 1.92712 33.5309 9.01879 33.5309 17.7292C33.5309 26.4396 26.4393 33.5313 17.7288 33.5313ZM17.7288 4.23962C10.2826 4.23962 4.23926 10.2984 4.23926 17.7292C4.23926 25.16 10.2826 31.2188 17.7288 31.2188C25.1751 31.2188 31.2184 25.16 31.2184 17.7292C31.2184 10.2984 25.1751 4.23962 17.7288 4.23962Z" fill="white"/>
<path d="M33.9164 35.0729C33.6235 35.0729 33.3306 34.965 33.0993 34.7337L30.016 31.6504C29.5689 31.2033 29.5689 30.4633 30.016 30.0162C30.4631 29.5691 31.2031 29.5691 31.6501 30.0162L34.7335 33.0996C35.1806 33.5466 35.1806 34.2866 34.7335 34.7337C34.5022 34.965 34.2093 35.0729 33.9164 35.0729Z" fill="white"/>
</svg>
