<svg width="37" height="37" viewBox="0 0 37 37" fill="none" xmlns="http://www.w3.org/2000/svg">
<path d="M26.208 32.7603H10.7913C5.16426 32.7603 1.92676 29.5228 1.92676 23.8958V13.1041C1.92676 7.477 5.16426 4.2395 10.7913 4.2395H26.208C31.8351 4.2395 35.0726 7.477 35.0726 13.1041V23.8958C35.0726 29.5228 31.8351 32.7603 26.208 32.7603ZM10.7913 6.552C6.38217 6.552 4.23926 8.69492 4.23926 13.1041V23.8958C4.23926 28.3049 6.38217 30.4478 10.7913 30.4478H26.208C30.6172 30.4478 32.7601 28.3049 32.7601 23.8958V13.1041C32.7601 8.69492 30.6172 6.552 26.208 6.552H10.7913Z" fill="white"/>
<path d="M18.4996 19.8412C17.2046 19.8412 15.8942 19.4404 14.8921 18.6233L10.0667 14.7691C9.57337 14.3683 9.48087 13.6437 9.88171 13.1504C10.2825 12.657 11.0071 12.5645 11.5005 12.9654L16.3259 16.8195C17.4975 17.76 19.4863 17.76 20.6579 16.8195L25.4834 12.9654C25.9767 12.5645 26.7167 12.6416 27.1021 13.1504C27.503 13.6437 27.4259 14.3837 26.9171 14.7691L22.0917 18.6233C21.105 19.4404 19.7946 19.8412 18.4996 19.8412Z" fill="white"/>
</svg>
