<svg width="37" height="37" viewBox="0 0 37 37" fill="none" xmlns="http://www.w3.org/2000/svg">
<path d="M23.1247 35.073H13.8747C5.50342 35.073 1.92676 31.4963 1.92676 23.125V13.875C1.92676 5.50379 5.50342 1.92712 13.8747 1.92712H23.1247C31.4959 1.92712 35.0726 5.50379 35.0726 13.875V23.125C35.0726 31.4963 31.4959 35.073 23.1247 35.073ZM13.8747 4.23962C6.76759 4.23962 4.23926 6.76796 4.23926 13.875V23.125C4.23926 30.2321 6.76759 32.7605 13.8747 32.7605H23.1247C30.2318 32.7605 32.7601 30.2321 32.7601 23.125V13.875C32.7601 6.76796 30.2318 4.23962 23.1247 4.23962H13.8747Z" fill="white"/>
<path d="M33.1148 12.1176H3.88477C3.25268 12.1176 2.72852 11.5934 2.72852 10.9613C2.72852 10.3292 3.23727 9.80505 3.88477 9.80505H33.1148C33.7468 9.80505 34.271 10.3292 34.271 10.9613C34.271 11.5934 33.7623 12.1176 33.1148 12.1176Z" fill="white"/>
<path d="M13.1348 11.9017C12.5027 11.9017 11.9785 11.3775 11.9785 10.7454V3.25293C11.9785 2.62085 12.5027 2.09668 13.1348 2.09668C13.7668 2.09668 14.291 2.62085 14.291 3.25293V10.7454C14.291 11.3775 13.7668 11.9017 13.1348 11.9017Z" fill="white"/>
<path d="M23.8652 11.2079C23.2332 11.2079 22.709 10.6838 22.709 10.0517V3.25293C22.709 2.62085 23.2332 2.09668 23.8652 2.09668C24.4973 2.09668 25.0215 2.62085 25.0215 3.25293V10.0517C25.0215 10.6992 24.5127 11.2079 23.8652 11.2079Z" fill="white"/>
<path d="M17.0971 27.9349C16.5421 27.9349 16.0179 27.7962 15.54 27.5341C14.4917 26.9174 13.875 25.6841 13.875 24.127V20.427C13.875 18.8699 14.4917 17.6212 15.5554 17.0045C16.6192 16.3879 18.0067 16.4804 19.3479 17.2666L22.5546 19.1166C23.8958 19.8874 24.6821 21.0437 24.6821 22.277C24.6821 23.5104 23.8958 24.6666 22.5392 25.4374L19.3325 27.2874C18.5925 27.7191 17.8217 27.9349 17.0971 27.9349ZM17.1125 18.9162C16.9583 18.9162 16.8196 18.947 16.7117 19.0087C16.3879 19.1937 16.1875 19.7179 16.1875 20.427V24.127C16.1875 24.8208 16.3879 25.3449 16.7117 25.5454C17.0354 25.7304 17.5904 25.6379 18.1917 25.2833L21.3983 23.4333C21.9996 23.0787 22.3696 22.647 22.3696 22.277C22.3696 21.907 22.015 21.4754 21.3983 21.1208L18.1917 19.2708C17.7908 19.0395 17.4054 18.9162 17.1125 18.9162Z" fill="white"/>
</svg>
